<?xml version="1.0" encoding="UTF-8"?>
<!DOCTYPE svg PUBLIC "-//W3C//DTD SVG 1.1//EN" "http://www.w3.org/Graphics/SVG/1.1/DTD/svg11.dtd">
<!-- Creator: CorelDRAW -->
<svg xmlns="http://www.w3.org/2000/svg" xml:space="preserve" width="332.886mm" height="46.4668mm" version="1.1" style="shape-rendering:geometricPrecision; text-rendering:geometricPrecision; image-rendering:optimizeQuality; fill-rule:evenodd; clip-rule:evenodd"
viewBox="0 0 9668.37 1349.59"
 xmlns:xlink="http://www.w3.org/1999/xlink"
 xmlns:xodm="http://www.corel.com/coreldraw/odm/2003">
 <defs>
  <style type="text/css">
   <![CDATA[
    .fil4 {fill:#FEFEFE}
    .fil3 {fill:#ED3237}
    .fil2 {fill:red}
    .fil0 {fill:black;fill-rule:nonzero}
    .fil1 {fill:red;fill-rule:nonzero}
   ]]>
  </style>
 </defs>
 <g id="Camada_x0020_1">
  <metadata id="CorelCorpID_0Corel-Layer"/>
  <g id="_1490609925328">
   <path class="fil0" d="M4969.05 471.89l-372.08 0 0 132.69 341.63 0 0 107.7 -341.63 0 0 159.4 389.34 0 0 111.15 -532.97 0 0 -620.38 515.71 0 0 109.43zm-1926.53 -2.58l0 406.69 136.3 0c69.86,0 118.38,-30.3 145.9,-90.91 15.14,-33.32 22.63,-72.81 22.63,-118.76 0,-63.47 -11.23,-112.16 -33.87,-146.05 -22.47,-34.03 -67.41,-50.98 -134.67,-50.98l-136.3 0zm161.37 -106.84c43.64,0.58 80.12,5.03 109.1,13.5 49.5,14.22 89.56,40.5 120.18,78.69 24.59,30.88 41.36,64.19 50.32,100.09 8.95,35.9 13.35,70.22 13.35,102.82 0,82.43 -18.89,152.22 -56.51,209.52 -50.97,77.12 -129.94,115.75 -236.44,115.75l-304.02 0 0 -620.38 304.02 0zm353.74 404.26l0 -109.43 195.41 0 0 -172.33 125.06 0 0 172.33 195.41 0 0 109.43 -195.41 0 0 174.05 -125.06 0 0 -174.05 -195.41 0zm1820.13 -253.47c53.57,0 97.38,12.49 131.41,37.34 34.03,24.99 51.13,66.06 51.13,123.64l0 308.61 -139.71 0 0 -278.74c0,-24.13 -3.58,-42.65 -10.91,-55.58 -13.19,-23.55 -38.59,-35.33 -75.88,-35.33 -45.76,0 -77.35,17.23 -94.28,51.7 -8.96,18.24 -13.35,41.5 -13.35,69.79l0 248.15 -135.8 0 0 -457.53 131.9 0 0 66.92c17.42,-23.69 33.87,-40.78 49.5,-51.12 27.84,-18.53 63.18,-27.86 106.01,-27.86zm530.2 371.36c31.76,0 58.62,-10.63 80.44,-31.74 21.98,-21.25 32.89,-54.86 32.89,-101.24 0,-43.37 -10.42,-76.54 -31.26,-99.23 -20.68,-22.69 -48.52,-34.03 -83.54,-34.03 -47.55,0 -80.44,19.82 -98.52,59.31 -9.61,20.97 -14.33,46.96 -14.33,77.84 0,26.57 5.05,50.26 15.31,71.09 18.4,38.63 51.29,58.02 99,58.02zm-32.89 -371.36c26.06,0 48.69,3.44 68.07,10.48 33.06,12.06 59.76,34.32 80.12,66.63l0 -66.78 132.87 0 0 434.98c0,59.17 -11.24,103.83 -33.87,133.84 -38.76,51.55 -113.17,77.4 -223.25,77.4 -66.44,0 -120.66,-11.49 -162.67,-34.32 -42.02,-22.98 -65.3,-57.16 -69.69,-102.68l147.53 0c3.75,13.93 10.1,23.98 18.56,30.16 14.66,10.91 39.41,16.37 74.09,16.37 48.85,0 81.74,-14.36 98.19,-43.22 10.91,-18.53 16.28,-49.54 16.28,-93.2l0 -29.44c-13.03,19.53 -27.03,34.18 -42.01,43.94 -27.03,18.09 -62.21,27.14 -105.36,27.14 -66.93,0 -120.17,-20.68 -160.07,-62.04 -39.89,-41.36 -59.93,-97.36 -59.93,-167.87 0,-68.21 19.22,-125.37 57.65,-171.75 38.43,-46.38 92.98,-69.65 163.49,-69.65zm623.18 98.22c-35.01,0 -62.04,8.48 -81.25,25.56 -19.22,16.95 -31.43,40.07 -36.31,69.22l234.48 0c-2.44,-31.02 -14.49,-54.57 -36.31,-70.66 -21.66,-16.08 -48.52,-24.13 -80.6,-24.13zm0.82 -99.95c45.27,0 85.98,7.18 122.13,21.4 36.31,14.36 66.11,36.91 89.72,67.78 21.33,27.28 35.17,58.88 41.36,94.78 3.75,20.97 5.21,51.27 4.56,90.9l-379.08 0c2.12,46.24 20.19,78.7 54.39,97.22 20.68,11.63 45.59,17.38 74.9,17.38 30.94,0 56.02,-7.04 75.4,-20.97 10.58,-7.61 19.87,-18.09 28.01,-31.59l139.55 0c-3.58,27.29 -20.52,54.86 -50.32,83.01 -46.57,44.66 -111.71,66.92 -195.4,66.92 -69.21,0 -130.27,-18.81 -183.03,-56.44 -52.92,-37.62 -79.3,-98.94 -79.3,-183.81 0,-79.56 23.78,-140.45 71.49,-182.95 47.71,-42.36 109.59,-63.62 185.64,-63.62zm615.69 1.73c53.57,0 97.38,12.49 131.41,37.34 34.03,24.99 51.14,66.06 51.14,123.64l0 308.61 -139.71 0 0 -278.74c0,-24.13 -3.58,-42.65 -10.91,-55.58 -13.19,-23.55 -38.59,-35.33 -75.88,-35.33 -45.76,0 -77.35,17.23 -94.28,51.7 -8.96,18.24 -13.35,41.5 -13.35,69.79l0 248.15 -135.81 0 0 -457.53 131.9 0 0 66.92c17.42,-23.69 33.87,-40.78 49.5,-51.12 27.84,-18.53 63.18,-27.86 106.01,-27.86zm594.85 -1.73c32.08,0 61.06,4.88 87.28,14.79 26.05,9.76 47.55,24.84 64.32,45.09 14.33,17.09 22.96,34.75 26.22,52.85 3.09,18.24 4.72,47.68 4.72,88.75l0 269.84 -139.71 0 0 -279.46c0,-24.7 -4.72,-44.66 -14.16,-59.89 -12.22,-21.4 -35.5,-32.02 -69.86,-32.02 -35.5,0 -62.37,10.63 -80.77,31.88 -18.4,21.11 -27.68,51.41 -27.68,90.76l0 248.72 -135.8 0 0 -617.79 135.8 0 0 218.14c19.7,-26.71 42.34,-45.24 68.23,-55.86 25.73,-10.48 52.92,-15.8 81.42,-15.8zm599.08 248.44c-8.63,4.74 -17.43,8.61 -26.38,11.49 -8.79,3.02 -21.01,5.74 -36.48,8.33l-30.94 5.02c-28.99,4.45 -49.67,9.91 -62.37,16.37 -21.33,11.06 -31.92,28 -31.92,51.12 0,20.54 6.51,35.33 19.54,44.52 13.03,9.05 28.98,13.64 47.71,13.64 29.64,0 56.99,-7.61 81.91,-22.83 24.91,-15.08 37.94,-42.8 38.92,-83.01l0 -44.66zm-83.05 -55.86c25.24,-2.87 43.31,-6.32 54.23,-10.63 19.54,-7.18 29.31,-18.67 29.31,-34.03 0,-18.81 -7.49,-31.74 -22.47,-38.92 -14.98,-7.18 -36.96,-10.77 -65.95,-10.77 -32.57,0 -55.53,7.04 -69.04,20.97 -9.77,10.34 -16.12,24.27 -19.38,41.93l-130.92 0c2.93,-40.07 15.63,-73.1 38.27,-98.8 36.15,-40.35 98.03,-60.6 185.63,-60.6 57.16,0 107.8,10.05 152.25,30.01 44.29,19.96 66.44,57.59 66.44,112.73l0 210.1c0,14.65 0.33,32.31 0.98,52.99 0.97,15.65 3.74,26.28 8.14,31.88 4.56,5.6 11.23,10.2 20.19,13.79l0 18.09 -147.86 0c-4.07,-9.19 -7,-17.81 -8.63,-25.99 -1.47,-8.04 -2.77,-17.23 -3.75,-27.57 -18.89,17.95 -40.55,33.32 -65.13,45.95 -29.47,14.79 -62.69,22.26 -99.66,22.26 -47.39,0 -86.47,-11.92 -117.25,-35.61 -30.78,-23.69 -46.24,-57.3 -46.24,-100.81 0,-56.44 24.75,-97.22 74.42,-122.5 27.19,-13.78 67.09,-23.55 119.85,-29.44l46.57 -5.02zm618.62 -190.85c2.44,0 4.72,0 6.35,0.14 1.79,0.14 5.7,0.43 11.73,0.72l0 123.21c-8.63,-1 -16.29,-1.72 -22.96,-2.01 -6.67,-0.43 -12.05,-0.58 -16.12,-0.58 -54.71,0 -91.52,15.65 -110.24,47.1 -10.58,17.66 -15.79,44.95 -15.79,81.71l0 219.29 -135.8 0 0 -459.25 128.97 0 0 80.27c21,-30.44 39.24,-51.27 54.71,-62.47 25.4,-18.81 58.46,-28.15 99.17,-28.15zm238.07 -43.94l-137.76 0 0 -110.29 137.76 0 0 110.29zm-137.76 54.28l137.76 0 0 459.25 -137.76 0 0 -459.25zm559.18 236.38c-8.63,4.74 -17.42,8.61 -26.38,11.49 -8.79,3.02 -21.01,5.74 -36.48,8.33l-30.94 5.02c-28.99,4.45 -49.67,9.91 -62.37,16.37 -21.33,11.06 -31.92,28 -31.92,51.12 0,20.54 6.51,35.33 19.54,44.52 13.03,9.05 28.99,13.64 47.71,13.64 29.64,0 57,-7.61 81.91,-22.83 24.91,-15.08 37.94,-42.8 38.92,-83.01l0 -44.66zm-83.05 -55.86c25.24,-2.87 43.32,-6.32 54.23,-10.63 19.54,-7.18 29.31,-18.67 29.31,-34.03 0,-18.81 -7.49,-31.74 -22.47,-38.92 -14.98,-7.18 -36.97,-10.77 -65.95,-10.77 -32.57,0 -55.53,7.04 -69.04,20.97 -9.77,10.34 -16.12,24.27 -19.38,41.93l-130.92 0c2.93,-40.07 15.63,-73.1 38.27,-98.8 36.15,-40.35 98.03,-60.6 185.63,-60.6 57.16,0 107.8,10.05 152.25,30.01 44.29,19.96 66.44,57.59 66.44,112.73l0 210.1c0,14.65 0.33,32.31 0.98,52.99 0.98,15.65 3.75,26.28 8.14,31.88 4.56,5.6 11.23,10.2 20.19,13.79l0 18.09 -147.86 0c-4.07,-9.19 -7,-17.81 -8.63,-25.99 -1.46,-8.04 -2.77,-17.23 -3.74,-27.57 -18.89,17.95 -40.55,33.32 -65.13,45.95 -29.47,14.79 -62.69,22.26 -99.66,22.26 -47.38,0 -86.47,-11.92 -117.24,-35.61 -30.78,-23.69 -46.24,-57.3 -46.24,-100.81 0,-56.44 24.75,-97.22 74.41,-122.5 27.19,-13.78 67.09,-23.55 119.85,-29.44l46.57 -5.02z"/>
   <path class="fil1" d="M3609.42 782.9l0 -16.18 143.63 0 0 16.18 -143.63 0zm268.69 -281.76l51.78 0 0 156.15 -51.78 0 0 -156.15zm195.41 172.33l51.78 0 0 109.43 -195.41 0 0 174.05 -125.06 0 0 -16.18 73.28 0 0 -174.05 195.41 0 0 -93.25z"/>
  </g>
  <g id="_1490609925808">
   <ellipse class="fil2" cx="1252.11" cy="644.7" rx="1252.12" ry="644.7"/>
   <path class="fil3" d="M2425.72 350.82c100.97,96.16 158.44,206.56 158.44,323.97 0,372.68 -578.48,674.79 -1292.08,674.79 -506.62,0 -945.06,-152.3 -1156.82,-373.99 219.52,209.07 644.87,350.82 1133.65,350.82 713.6,0 1292.08,-302.11 1292.08,-674.79 0,-108.09 -48.75,-210.23 -135.26,-300.8z"/>
   <path class="fil4" d="M507.96 925.97l60.42 0 0 -761.34 304.54 0c72.3,0 143.28,12.67 212.69,43.51 -38.34,-45.96 -90.28,-77.34 -152.27,-77.34l-425.38 0 0 795.18z"/>
   <path class="fil4" d="M398.51 1048.27l0 45.24 517.46 0c519.46,0 703.06,-679.94 312.88,-961.93 249,251.2 256.79,859.29 -352.16,922.34l-478.18 -5.65z"/>
   <path class="fil4" d="M1609.91 588.67l306.73 0 0 51.89 -306.73 0 0 -51.89zm342.57 277.99l101.47 0 0 -30.91 0 -247.08 6.04 0 45.84 0 289.01 0 0 -72.49 51.89 0 0 72.49 0 51.05 0 0.83 -340.9 0 0 195.19 0 30.91 0 51.89 -51.89 0 -101.47 0 0 -51.89zm153.36 -640.35l0 247.08 -51.89 0 0 -247.08 51.89 0z"/>
  </g>
 </g>
</svg>
