<?xml version="1.0" encoding="UTF-8"?>
<!DOCTYPE svg PUBLIC "-//W3C//DTD SVG 1.1//EN" "http://www.w3.org/Graphics/SVG/1.1/DTD/svg11.dtd">
<!-- Creator: CorelDRAW -->
<svg xmlns="http://www.w3.org/2000/svg" xml:space="preserve" width="183.627mm" height="95.9001mm" version="1.1" style="shape-rendering:geometricPrecision; text-rendering:geometricPrecision; image-rendering:optimizeQuality; fill-rule:evenodd; clip-rule:evenodd"
viewBox="0 0 8765.89 4578.02"
 xmlns:xlink="http://www.w3.org/1999/xlink"
 xmlns:xodm="http://www.corel.com/coreldraw/odm/2003">
 <defs>
  <style type="text/css">
   <![CDATA[
    .fil2 {fill:#FEFEFE}
    .fil1 {fill:#ED3237}
    .fil0 {fill:red}
   ]]>
  </style>
 </defs>
 <g id="Camada_x0020_1">
  <metadata id="CorelCorpID_0Corel-Layer"/>
  <ellipse class="fil0" cx="4247.38" cy="2186.94" rx="4247.38" ry="2186.94"/>
  <path class="fil1" d="M8228.46 1190.04c342.52,326.2 537.44,700.68 537.44,1098.96 0,1264.19 -1962.31,2289.01 -4382.94,2289.01 -1718.54,0 -3205.8,-516.63 -3924.13,-1268.66 744.66,709.2 2187.5,1190.05 3845.52,1190.05 2420.63,0 4382.94,-1024.82 4382.94,-2289.01 0,-366.67 -165.36,-713.12 -458.83,-1020.36z"/>
  <path class="fil2" d="M1723.08 3141.06l204.97 0 0 -2582.59 1033.03 0c245.27,0 486.03,42.98 721.49,147.58 -130.06,-155.89 -306.23,-262.36 -516.52,-262.36l-1442.97 0 0 2697.37z"/>
  <path class="fil2" d="M1351.81 3555.89l0 153.47 1755.3 0c1762.09,0 2384.89,-2306.46 1061.35,-3263.01 844.66,852.12 871.08,2914.86 -1194.58,3128.72l-1622.08 -19.19z"/>
  <path class="fil2" d="M5461.08 1996.87l1040.46 0 0 176.01 -1040.46 0 0 -176.01zm1162.06 942.98l344.22 0 0 -104.85 0 -838.13 20.49 0 155.51 0 980.37 0 0 -245.89 176.01 0 0 245.89 0 173.18 0 2.83 -1156.38 0 0 662.13 0 104.85 0 176.01 -176.01 0 -344.22 0 0 -176.01zm520.23 -2172.16l0 838.13 -176.01 0 0 -838.13 176.01 0z"/>
 </g>
</svg>
