<?xml version="1.0" encoding="UTF-8"?>
<!DOCTYPE svg PUBLIC "-//W3C//DTD SVG 1.1//EN" "http://www.w3.org/Graphics/SVG/1.1/DTD/svg11.dtd">
<!-- Creator: CorelDRAW -->
<svg xmlns="http://www.w3.org/2000/svg" xml:space="preserve" width="297mm" height="210mm" version="1.1" style="shape-rendering:geometricPrecision; text-rendering:geometricPrecision; image-rendering:optimizeQuality; fill-rule:evenodd; clip-rule:evenodd"
viewBox="0 0 29700 21000"
 xmlns:xlink="http://www.w3.org/1999/xlink"
 xmlns:xodm="http://www.corel.com/coreldraw/odm/2003">
 <defs>
  <style type="text/css">
   <![CDATA[
    .fil4 {fill:#FEFEFE}
    .fil1 {fill:#ED3237}
    .fil0 {fill:red}
    .fil2 {fill:black;fill-rule:nonzero}
    .fil3 {fill:red;fill-rule:nonzero}
   ]]>
  </style>
 </defs>
 <g id="Camada_x0020_1">
  <metadata id="CorelCorpID_0Corel-Layer"/>
  <image x="2410.21" y="2507.24" width="25188.32" height="14287.5" xlink:href="logo-vertical_Images\logo-vertical_ImgID1.png"/>
  <ellipse class="fil0" cx="42980.49" cy="7654.95" rx="8897.38" ry="4581.2"/>
  <path class="fil1" d="M51320.03 5566.65c717.5,683.33 1125.82,1467.78 1125.82,2302.1 0,2648.22 -4110.64,4795.01 -9181.37,4795.01 -3599.99,0 -6715.49,-1082.24 -8220.24,-2657.58 1559.91,1485.63 4582.37,2492.92 8055.57,2492.92 5070.73,0 9181.37,-2146.79 9181.37,-4795.01 0,-768.1 -346.4,-1493.85 -961.15,-2137.44z"/>
  <path class="fil2" d="M38945.84 13840.45l-1281.1 0 0 456.86 1176.25 0 0 370.83 -1176.25 0 0 548.83 1340.53 0 0 382.7 -1835.03 0 0 -2135.99 1775.6 0 0 376.77zm-6633.11 -8.9l0 1400.26 469.27 0c240.52,0 407.6,-104.33 502.35,-312.99 52.14,-114.71 77.92,-250.68 77.92,-408.9 0,-218.54 -38.68,-386.16 -116.61,-502.85 -77.37,-117.18 -232.11,-175.52 -463.66,-175.52l-469.27 0zm555.61 -367.87c150.25,1.98 275.85,17.31 375.64,46.48 170.44,48.95 308.36,139.43 413.77,270.95 84.65,106.31 142.39,221.02 173.24,344.63 30.83,123.61 45.97,241.78 45.97,354.02 0,283.81 -65.03,524.11 -194.55,721.39 -175.49,265.52 -447.4,398.52 -814.07,398.52l-1046.74 0 0 -2135.99 1046.74 0zm1217.95 1391.89l0 -376.77 672.79 0 0 -593.33 430.58 0 0 593.33 672.79 0 0 376.77 -672.79 0 0 599.26 -430.58 0 0 -599.26 -672.79 0zm6266.79 -872.72c184.46,0 335.27,43.01 452.45,128.55 117.18,86.03 176.05,227.44 176.05,425.71l0 1062.56 -481.04 0 0 -959.71c0,-83.07 -12.34,-146.85 -37.57,-191.35 -45.41,-81.09 -132.87,-121.63 -261.26,-121.63 -157.55,0 -266.31,59.33 -324.62,178 -30.84,62.79 -45.98,142.89 -45.98,240.29l0 854.4 -467.58 0 0 -1575.29 454.13 0 0 230.41c59.99,-81.58 116.61,-140.42 170.44,-176.02 95.87,-63.79 217.53,-95.92 364.98,-95.92zm1825.49 1278.62c109.34,0 201.84,-36.59 276.97,-109.27 75.69,-73.18 113.25,-188.88 113.25,-348.58 0,-149.32 -35.88,-263.54 -107.64,-341.66 -71.2,-78.12 -167.07,-117.18 -287.62,-117.18 -163.72,0 -276.96,68.23 -339.2,204.2 -33.08,72.19 -49.34,161.68 -49.34,267.99 0,91.47 17.39,173.05 52.71,244.75 63.35,133 176.6,199.75 340.87,199.75zm-113.25 -1278.62c89.71,0 167.64,11.86 234.36,36.09 113.81,41.53 205.76,118.17 275.84,229.42l0 -229.91 457.49 0 0 1497.66c0,203.71 -38.69,357.48 -116.61,460.82 -133.44,177.5 -389.66,266.5 -768.66,266.5 -228.74,0 -415.44,-39.55 -560.09,-118.17 -144.66,-79.11 -224.83,-196.79 -239.96,-353.52l507.95 0c12.9,47.96 34.76,82.57 63.91,103.83 50.46,37.58 135.68,56.36 255.1,56.36 168.19,0 281.45,-49.44 338.08,-148.82 37.56,-63.79 56.06,-170.58 56.06,-320.89l0 -101.37c-44.85,67.25 -93.06,117.68 -144.64,151.3 -93.08,62.3 -214.18,93.45 -362.75,93.45 -230.43,0 -413.76,-71.2 -551.12,-213.6 -137.36,-142.39 -206.33,-335.23 -206.33,-578 0,-234.86 66.17,-431.65 198.48,-591.35 132.31,-159.7 320.13,-239.8 562.89,-239.8zm2145.63 338.19c-120.54,0 -213.61,29.18 -279.76,88.01 -66.17,58.35 -108.21,137.95 -125.03,238.33l807.34 0c-8.4,-106.8 -49.89,-187.89 -125.03,-243.27 -74.56,-55.38 -167.07,-83.07 -277.52,-83.07zm2.81 -344.13c155.86,0 296.02,24.72 420.49,73.67 125.02,49.45 227.62,127.08 308.92,233.38 73.45,93.94 121.09,202.72 142.4,326.33 12.9,72.19 17.95,176.52 15.7,312.98l-1305.2 0c7.29,159.21 69.52,270.96 187.26,334.74 71.19,40.05 156.97,59.83 257.89,59.83 106.53,0 192.87,-24.23 259.59,-72.19 36.44,-26.21 68.4,-62.3 96.43,-108.78l480.48 0c-12.33,93.95 -70.64,188.88 -173.24,285.79 -160.34,153.77 -384.61,230.41 -672.78,230.41 -238.28,0 -448.52,-64.77 -630.18,-194.32 -182.22,-129.54 -273.04,-340.67 -273.04,-632.88 0,-273.92 81.86,-483.57 246.13,-629.92 164.27,-145.86 377.32,-219.04 639.15,-219.04zm2119.83 5.94c184.45,0 335.27,43.01 452.44,128.55 117.18,86.03 176.06,227.44 176.06,425.71l0 1062.56 -481.04 0 0 -959.71c0,-83.07 -12.34,-146.85 -37.57,-191.35 -45.41,-81.09 -132.87,-121.63 -261.27,-121.63 -157.54,0 -266.31,59.33 -324.61,178 -30.85,62.79 -45.98,142.89 -45.98,240.29l0 854.4 -467.59 0 0 -1575.29 454.14 0 0 230.41c59.98,-81.58 116.61,-140.42 170.44,-176.02 95.87,-63.79 217.53,-95.92 364.98,-95.92zm2048.08 -5.94c110.44,0 210.24,16.81 300.51,50.93 89.7,33.62 163.7,85.54 221.45,155.25 49.34,58.84 79.06,119.66 90.27,181.96 10.65,62.79 16.25,164.15 16.25,305.56l0 929.06 -481.04 0 0 -962.18c0,-85.05 -16.26,-153.77 -48.77,-206.19 -42.06,-73.67 -122.22,-110.26 -240.52,-110.26 -122.23,0 -214.73,36.59 -278.09,109.77 -63.35,72.68 -95.31,177.01 -95.31,312.49l0 856.37 -467.58 0 0 -2127.09 467.58 0 0 751.06c67.84,-91.97 145.77,-155.75 234.91,-192.34 88.59,-36.09 182.22,-54.39 280.34,-54.39zm2062.65 855.39c-29.72,16.31 -60,29.66 -90.83,39.55 -30.28,10.39 -72.33,19.78 -125.59,28.68l-106.52 17.3c-99.8,15.33 -171.01,34.12 -214.73,56.37 -73.45,38.07 -109.89,96.42 -109.89,176.02 0,70.71 22.42,121.64 67.28,153.28 44.85,31.15 99.79,46.97 164.27,46.97 102.04,0 196.23,-26.2 282.01,-78.61 85.78,-51.92 130.63,-147.35 134,-285.79l0 -153.77zm-285.94 -192.34c86.9,-9.89 149.13,-21.76 186.7,-36.59 67.27,-24.72 100.91,-64.28 100.91,-117.18 0,-64.77 -25.78,-109.27 -77.36,-134 -51.58,-24.72 -127.27,-37.08 -227.07,-37.08 -112.13,0 -191.19,24.23 -237.71,72.19 -33.65,35.6 -55.51,83.56 -66.72,144.38l-450.77 0c10.09,-137.95 53.82,-251.67 131.75,-340.18 124.47,-138.94 337.51,-208.65 639.14,-208.65 196.8,0 371.16,34.61 524.22,103.33 152.49,68.73 228.75,198.28 228.75,388.14l0 723.37c0,50.43 1.12,111.25 3.37,182.45 3.35,53.89 12.89,90.48 28.03,109.76 15.69,19.29 38.68,35.11 69.52,47.47l0 62.3 -509.08 0c-14.02,-31.64 -24.11,-61.31 -29.71,-89.49 -5.05,-27.69 -9.54,-59.34 -12.9,-94.94 -65.04,61.81 -139.6,114.71 -224.26,158.22 -101.48,50.93 -215.85,76.64 -343.12,76.64 -163.15,0 -297.71,-41.04 -403.68,-122.62 -105.96,-81.58 -159.22,-197.28 -159.22,-347.1 0,-194.31 85.22,-334.73 256.22,-421.76 93.62,-47.46 230.99,-81.08 412.64,-101.36l160.35 -17.3zm2129.92 -657.11c8.41,0 16.26,0 21.87,0.49 6.17,0.49 19.62,1.48 40.37,2.47l0 424.23c-29.72,-3.46 -56.07,-5.93 -79.06,-6.92 -22.98,-1.48 -41.49,-1.98 -55.5,-1.98 -188.38,0 -315.09,53.9 -379.57,162.18 -36.43,60.82 -54.38,154.76 -54.38,281.34l0 755.01 -467.58 0 0 -1581.22 444.04 0 0 276.39c72.32,-104.82 135.12,-176.52 188.38,-215.08 87.46,-64.78 201.27,-96.91 341.43,-96.91zm819.69 -151.3l-474.32 0 0 -379.73 474.32 0 0 379.73zm-474.32 186.9l474.32 0 0 1581.22 -474.32 0 0 -1581.22zm1925.28 813.85c-29.72,16.31 -59.99,29.66 -90.82,39.55 -30.28,10.39 -72.33,19.78 -125.59,28.68l-106.52 17.3c-99.8,15.33 -171.01,34.12 -214.73,56.37 -73.45,38.07 -109.89,96.42 -109.89,176.02 0,70.71 22.42,121.64 67.27,153.28 44.86,31.15 99.8,46.97 164.27,46.97 102.04,0 196.24,-26.2 282.02,-78.61 85.78,-51.92 130.63,-147.35 133.99,-285.79l0 -153.77zm-285.94 -192.34c86.91,-9.89 149.14,-21.76 186.7,-36.59 67.28,-24.72 100.92,-64.28 100.92,-117.18 0,-64.77 -25.78,-109.27 -77.36,-134 -51.59,-24.72 -127.28,-37.08 -227.07,-37.08 -112.13,0 -191.19,24.23 -237.72,72.19 -33.64,35.6 -55.5,83.56 -66.71,144.38l-450.77 0c10.09,-137.95 53.82,-251.67 131.75,-340.18 124.47,-138.94 337.51,-208.65 639.14,-208.65 196.79,0 371.16,34.61 524.22,103.33 152.49,68.73 228.75,198.28 228.75,388.14l0 723.37c0,50.43 1.12,111.25 3.36,182.45 3.36,53.89 12.9,90.48 28.04,109.76 15.69,19.29 38.67,35.11 69.52,47.47l0 62.3 -509.09 0c-14.01,-31.64 -24.1,-61.31 -29.71,-89.49 -5.04,-27.69 -9.53,-59.34 -12.89,-94.94 -65.04,61.81 -139.61,114.71 -224.26,158.22 -101.48,50.93 -215.86,76.64 -343.13,76.64 -163.14,0 -297.71,-41.04 -403.67,-122.62 -105.96,-81.58 -159.22,-197.28 -159.22,-347.1 0,-194.31 85.22,-334.73 256.21,-421.76 93.63,-47.46 230.99,-81.08 412.65,-101.36l160.34 -17.3z"/>
  <path class="fil3" d="M34264.56 14911.28l0 -55.71 494.52 0 0 55.71 -494.52 0zm925.1 -970.1l178.27 0 0 537.62 -178.27 0 0 -537.62zm672.79 593.33l178.27 0 0 376.77 -672.79 0 0 599.26 -430.58 0 0 -55.71 252.31 0 0 -599.26 672.79 0 0 -321.06z"/>
  <path class="fil4" d="M37692.61 9653.62l429.37 0 0 -5409.99 2163.99 0c513.78,0 1018.14,90.03 1511.37,309.14 -272.45,-326.56 -641.49,-549.59 -1082,-549.59l-3022.73 0 0 5650.44z"/>
  <path class="fil4" d="M36914.86 10522.61l0 321.49 3677 0c3691.21,0 4995.86,-4831.57 2223.31,-6835.33 1769.38,1785.02 1824.74,6106.04 -2502.39,6554.03l-3397.92 -40.19z"/>
  <path class="fil4" d="M45522.95 7256.79l2179.56 0 0 368.7 -2179.56 0 0 -368.7zm2434.27 1975.35l721.08 0 0 -219.63 0 -1755.72 42.93 0 325.77 0 2053.67 0 0 -515.09 368.7 0 0 515.09 0 362.77 0 5.93 -2422.37 0 0 1387.02 0 219.63 0 368.7 -368.7 0 -721.08 0 0 -368.7zm1089.78 -4550.22l0 1755.72 -368.7 0 0 -1755.72 368.7 0z"/>
 </g>
</svg>
