<?xml version="1.0" encoding="UTF-8"?>
<!DOCTYPE svg PUBLIC "-//W3C//DTD SVG 1.1//EN" "http://www.w3.org/Graphics/SVG/1.1/DTD/svg11.dtd">
<!-- Creator: CorelDRAW -->
<svg xmlns="http://www.w3.org/2000/svg" xml:space="preserve" width="233.042mm" height="131.697mm" version="1.1" style="shape-rendering:geometricPrecision; text-rendering:geometricPrecision; image-rendering:optimizeQuality; fill-rule:evenodd; clip-rule:evenodd"
viewBox="0 0 8946.52 5055.87"
 xmlns:xlink="http://www.w3.org/1999/xlink"
 xmlns:xodm="http://www.corel.com/coreldraw/odm/2003">
 <defs>
  <style type="text/css">
   <![CDATA[
    .fil1 {fill:#ED3237}
    .fil4 {fill:#FEFEFE}
    .fil0 {fill:red}
    .fil2 {fill:black;fill-rule:nonzero}
    .fil3 {fill:red;fill-rule:nonzero}
   ]]>
  </style>
 </defs>
 <g id="Camada_x0020_1">
  <metadata id="CorelCorpID_0Corel-Layer"/>
  <ellipse class="fil0" cx="4283.92" cy="1758.73" rx="3415.72" ry="1758.73"/>
  <path class="fil1" d="M7485.49 957.03c275.45,262.33 432.2,563.48 432.2,883.78 0,1016.66 -1578.08,1840.81 -3524.75,1840.81 -1382.04,0 -2578.09,-415.47 -3155.77,-1020.25 598.85,570.34 1759.18,957.04 3092.55,957.04 1946.66,0 3524.75,-824.16 3524.75,-1840.81 0,-294.88 -132.98,-573.49 -368.99,-820.57z"/>
  <path class="fil2" d="M2735.01 4133.36l-491.82 0 0 175.39 451.56 0 0 142.36 -451.56 0 0 210.7 514.63 0 0 146.92 -704.47 0 0 -820.01 681.66 0 0 144.64zm-2546.47 -3.42l0 537.56 180.15 0c92.34,0 156.48,-40.05 192.85,-120.16 20.02,-44.04 29.91,-96.24 29.91,-156.98 0,-83.9 -14.85,-148.25 -44.77,-193.05 -29.7,-44.99 -89.11,-67.38 -178,-67.38l-180.15 0zm213.3 -141.23c57.68,0.76 105.9,6.65 144.21,17.84 65.43,18.79 118.38,53.53 158.85,104.02 32.5,40.81 54.66,84.85 66.51,132.3 11.84,47.45 17.65,92.82 17.65,135.91 0,108.96 -24.97,201.21 -74.69,276.94 -67.37,101.93 -171.76,152.99 -312.52,152.99l-401.85 0 0 -820.01 401.85 0zm467.57 534.35l0 -144.64 258.29 0 0 -227.78 165.3 0 0 227.78 258.29 0 0 144.64 -258.29 0 0 230.06 -165.3 0 0 -230.06 -258.29 0zm2405.83 -335.04c70.81,0 128.71,16.51 173.7,49.35 44.99,33.03 67.59,87.31 67.59,163.43l0 407.92 -184.67 0 0 -368.43c0,-31.89 -4.74,-56.38 -14.42,-73.46 -17.43,-31.13 -51.01,-46.69 -100.3,-46.69 -60.48,0 -102.24,22.78 -124.62,68.33 -11.84,24.11 -17.65,54.86 -17.65,92.25l0 328.01 -179.5 0 0 -604.76 174.34 0 0 88.45c23.03,-31.32 44.77,-53.91 65.43,-67.57 36.8,-24.49 83.51,-36.82 140.12,-36.82zm700.81 490.86c41.98,0 77.49,-14.05 106.33,-41.95 29.06,-28.09 43.48,-72.51 43.48,-133.82 0,-57.32 -13.77,-101.17 -41.32,-131.16 -27.33,-29.99 -64.14,-44.99 -110.42,-44.99 -62.85,0 -106.33,26.19 -130.22,78.39 -12.7,27.71 -18.94,62.07 -18.94,102.88 0,35.12 6.68,66.43 20.24,93.96 24.32,51.06 67.8,76.68 130.86,76.68zm-43.48 -490.86c34.44,0 64.36,4.55 89.97,13.86 43.69,15.94 78.99,45.37 105.9,88.07l0 -88.26 175.63 0 0 574.95c0,78.2 -14.85,137.24 -44.77,176.91 -51.23,68.14 -149.59,102.31 -295.09,102.31 -87.81,0 -159.49,-15.18 -215.02,-45.37 -55.54,-30.37 -86.31,-75.55 -92.12,-135.72l195 0c4.95,18.41 13.34,31.7 24.54,39.86 19.37,14.43 52.09,21.64 97.93,21.64 64.57,0 108.05,-18.98 129.79,-57.13 14.42,-24.49 21.52,-65.49 21.52,-123.19l0 -38.92c-17.22,25.82 -35.73,45.18 -55.53,58.08 -35.73,23.92 -82.22,35.88 -139.26,35.88 -88.46,0 -158.84,-27.33 -211.58,-82 -52.73,-54.66 -79.21,-128.7 -79.21,-221.9 0,-90.16 25.4,-165.71 76.2,-227.02 50.79,-61.31 122.9,-92.06 216.09,-92.06zm823.71 129.83c-46.28,0 -82.01,11.2 -107.4,33.79 -25.4,22.4 -41.54,52.96 -48,91.5l309.94 0c-3.22,-41 -19.15,-72.13 -48,-93.39 -28.62,-21.26 -64.14,-31.89 -106.54,-31.89zm1.08 -132.11c59.83,0 113.64,9.49 161.43,28.28 48,18.98 87.38,48.79 118.6,89.6 28.2,36.06 46.49,77.82 54.67,125.28 4.95,27.71 6.89,67.77 6.03,120.15l-501.07 0c2.8,61.12 26.69,104.02 71.89,128.51 27.33,15.38 60.26,22.97 99,22.97 40.9,0 74.04,-9.3 99.66,-27.71 13.99,-10.06 26.26,-23.92 37.02,-41.76l184.46 0c-4.73,36.07 -27.12,72.51 -66.51,109.72 -61.55,59.03 -147.65,88.45 -258.28,88.45 -91.48,0 -172.19,-24.87 -241.93,-74.6 -69.95,-49.73 -104.82,-130.78 -104.82,-242.96 0,-105.16 31.43,-185.64 94.49,-241.83 63.06,-56 144.85,-84.09 245.37,-84.09zm813.81 2.28c70.81,0 128.71,16.51 173.69,49.35 44.99,33.03 67.59,87.31 67.59,163.43l0 407.92 -184.67 0 0 -368.43c0,-31.89 -4.74,-56.38 -14.42,-73.46 -17.43,-31.13 -51.01,-46.69 -100.3,-46.69 -60.48,0 -102.24,22.78 -124.62,68.33 -11.84,24.11 -17.65,54.86 -17.65,92.25l0 328.01 -179.51 0 0 -604.76 174.35 0 0 88.45c23.03,-31.32 44.77,-53.91 65.43,-67.57 36.8,-24.49 83.51,-36.82 140.12,-36.82zm786.26 -2.28c42.4,0 80.71,6.45 115.37,19.55 34.44,12.91 62.84,32.84 85.02,59.6 18.94,22.59 30.35,45.94 34.65,69.85 4.09,24.11 6.24,63.02 6.24,117.31l0 356.67 -184.67 0 0 -369.38c0,-32.65 -6.24,-59.03 -18.72,-79.16 -16.15,-28.28 -46.92,-42.33 -92.34,-42.33 -46.92,0 -82.44,14.05 -106.76,42.14 -24.32,27.9 -36.59,67.95 -36.59,119.97l0 328.76 -179.5 0 0 -816.59 179.5 0 0 288.33c26.04,-35.31 55.96,-59.79 90.18,-73.84 34.01,-13.86 69.95,-20.88 107.62,-20.88zm791.86 328.39c-11.41,6.26 -23.03,11.39 -34.87,15.18 -11.62,3.99 -27.77,7.59 -48.21,11.01l-40.89 6.64c-38.31,5.89 -65.65,13.1 -82.44,21.64 -28.2,14.62 -42.19,37.02 -42.19,67.57 0,27.15 8.61,46.7 25.83,58.84 17.22,11.96 38.31,18.03 63.06,18.03 39.17,0 75.33,-10.06 108.26,-30.18 32.93,-19.93 50.15,-56.57 51.44,-109.72l0 -59.03zm-109.77 -73.84c33.36,-3.8 57.25,-8.35 71.67,-14.05 25.83,-9.49 38.74,-24.68 38.74,-44.99 0,-24.87 -9.9,-41.95 -29.7,-51.44 -19.8,-9.49 -48.86,-14.24 -87.17,-14.24 -43.05,0 -73.4,9.3 -91.26,27.71 -12.92,13.67 -21.31,32.08 -25.61,55.43l-173.05 0c3.87,-52.96 20.66,-96.62 50.58,-130.6 47.78,-53.34 129.57,-80.1 245.37,-80.1 75.55,0 142.49,13.29 201.25,39.67 58.54,26.39 87.82,76.12 87.82,149.01l0 277.7c0,19.36 0.43,42.71 1.29,70.04 1.29,20.69 4.95,34.74 10.76,42.14 6.02,7.41 14.85,13.48 26.69,18.22l0 23.92 -195.44 0c-5.38,-12.15 -9.26,-23.54 -11.41,-34.36 -1.94,-10.63 -3.66,-22.78 -4.95,-36.45 -24.97,23.73 -53.59,44.04 -86.09,60.74 -38.96,19.55 -82.87,29.42 -131.72,29.42 -62.63,0 -114.29,-15.76 -154.97,-47.07 -40.68,-31.32 -61.12,-75.74 -61.12,-133.25 0,-74.6 32.72,-128.5 98.36,-161.91 35.94,-18.22 88.68,-31.13 158.41,-38.91l61.56 -6.64zm817.68 -252.27c3.23,0 6.24,0 8.4,0.19 2.37,0.19 7.53,0.57 15.5,0.95l0 162.86c-11.41,-1.33 -21.53,-2.28 -30.35,-2.66 -8.82,-0.57 -15.93,-0.76 -21.31,-0.76 -72.32,0 -120.96,20.69 -145.72,62.26 -13.99,23.35 -20.88,59.41 -20.88,108.01l0 289.85 -179.5 0 0 -607.03 170.47 0 0 106.11c27.76,-40.24 51.87,-67.77 72.32,-82.57 33.58,-24.87 77.27,-37.2 131.08,-37.2zm314.68 -58.08l-182.09 0 0 -145.78 182.09 0 0 145.78zm-182.09 71.75l182.09 0 0 607.03 -182.09 0 0 -607.03zm739.12 312.44c-11.41,6.26 -23.03,11.39 -34.87,15.18 -11.62,3.99 -27.77,7.59 -48.21,11.01l-40.89 6.64c-38.31,5.89 -65.65,13.1 -82.44,21.64 -28.2,14.62 -42.19,37.02 -42.19,67.57 0,27.15 8.61,46.7 25.83,58.84 17.22,11.96 38.31,18.03 63.06,18.03 39.17,0 75.34,-10.06 108.27,-30.18 32.93,-19.93 50.15,-56.57 51.44,-109.72l0 -59.03zm-109.77 -73.84c33.36,-3.8 57.26,-8.35 71.67,-14.05 25.83,-9.49 38.74,-24.68 38.74,-44.99 0,-24.87 -9.9,-41.95 -29.7,-51.44 -19.81,-9.49 -48.86,-14.24 -87.17,-14.24 -43.05,0 -73.4,9.3 -91.26,27.71 -12.91,13.67 -21.31,32.08 -25.61,55.43l-173.05 0c3.87,-52.96 20.66,-96.62 50.58,-130.6 47.78,-53.34 129.57,-80.1 245.37,-80.1 75.55,0 142.49,13.29 201.25,39.67 58.54,26.39 87.82,76.12 87.82,149.01l0 277.7c0,19.36 0.43,42.71 1.29,70.04 1.29,20.69 4.95,34.74 10.76,42.14 6.02,7.41 14.85,13.48 26.69,18.22l0 23.92 -195.44 0c-5.38,-12.15 -9.25,-23.54 -11.41,-34.36 -1.93,-10.63 -3.66,-22.78 -4.95,-36.45 -24.97,23.73 -53.6,44.04 -86.09,60.74 -38.96,19.55 -82.87,29.42 -131.73,29.42 -62.63,0 -114.29,-15.76 -154.97,-47.07 -40.68,-31.32 -61.12,-75.74 -61.12,-133.25 0,-74.6 32.72,-128.5 98.36,-161.91 35.94,-18.22 88.68,-31.13 158.42,-38.91l61.55 -6.64z"/>
  <path class="fil3" d="M937.86 4544.45l0 -21.39 189.85 0 0 21.39 -189.85 0zm355.15 -372.42l68.44 0 0 206.39 -68.44 0 0 -206.39zm258.29 227.78l68.44 0 0 144.64 -258.29 0 0 230.06 -165.3 0 0 -21.39 96.86 0 0 -230.06 258.29 0 0 -123.26z"/>
  <path class="fil4" d="M2253.89 2526.03l164.84 0 0 -2076.91 830.76 0c197.24,0 390.87,34.56 580.22,118.68 -104.59,-125.37 -246.27,-210.99 -415.38,-210.99l-1160.43 0 0 2169.22z"/>
  <path class="fil4" d="M1955.31 2859.63l0 123.42 1411.61 0c1417.06,0 1917.92,-1854.85 853.53,-2624.1 679.27,685.27 700.52,2344.12 -960.67,2516.11l-1304.47 -15.43z"/>
  <path class="fil4" d="M5259.98 1605.88l836.74 0 0 141.54 -836.74 0 0 -141.54zm934.52 758.34l276.82 0 0 -84.32 0 -674.02 16.48 0 125.06 0 788.41 0 0 -197.74 141.54 0 0 197.74 0 139.27 0 2.28 -929.95 0 0 532.48 0 84.32 0 141.54 -141.54 0 -276.82 0 0 -141.54zm418.37 -1746.84l0 674.02 -141.54 0 0 -674.02 141.54 0z"/>
 </g>
</svg>
